<svg width="17" height="16" viewBox="0 0 17 16" fill="none" xmlns="http://www.w3.org/2000/svg">
<g id="eye">
<mask id="mask0_674_627" style="mask-type:luminance" maskUnits="userSpaceOnUse" x="0" y="0" width="17" height="16">
<rect id="Background" x="0.499512" width="16" height="16" fill="white"/>
</mask>
<g mask="url(#mask0_674_627)">
<path id="Shape" fill-rule="evenodd" clip-rule="evenodd" d="M16.4995 8C16.4995 8 13.4995 2.5 8.49951 2.5C3.49951 2.5 0.499512 8 0.499512 8C0.499512 8 3.49951 13.5 8.49951 13.5C13.4995 13.5 16.4995 8 16.4995 8ZM1.67252 8C2.15604 8.73488 2.71216 9.41931 3.33252 10.043C4.61952 11.332 6.37952 12.5 8.49952 12.5C10.6195 12.5 12.3785 11.332 13.6675 10.043C14.2879 9.41931 14.844 8.73487 15.3275 8C14.844 7.26512 14.2879 6.58068 13.6675 5.957C12.3785 4.668 10.6185 3.5 8.49952 3.5C6.37952 3.5 4.62052 4.668 3.33152 5.957C2.71115 6.58069 2.15503 7.26513 1.67151 8.00001L1.67252 8Z" fill="#BEBEBE"/>
<path id="Shape_2" fill-rule="evenodd" clip-rule="evenodd" d="M8.49951 5.5C7.1188 5.5 5.99952 6.61928 5.99951 7.99999C5.99951 9.3807 7.11879 10.5 8.4995 10.5C9.88021 10.5 10.9995 9.38072 10.9995 8.00001C10.9995 6.6193 9.88023 5.50001 8.49952 5.5H8.49951ZM4.99951 8C4.99951 6.74957 5.66661 5.59413 6.74951 4.96891C7.83241 4.3437 9.16661 4.3437 10.2495 4.96891C11.3324 5.59412 11.9995 6.74957 11.9995 8C11.9995 9.25043 11.3324 10.4059 10.2495 11.0311C9.16661 11.6563 7.83242 11.6563 6.74951 11.0311C5.66661 10.4059 4.99951 9.25043 4.99951 8V8Z" fill="#BEBEBE"/>
</g>
</g>
</svg>
