<svg width="24" height="24" viewBox="0 0 24 24" fill="none" xmlns="http://www.w3.org/2000/svg">
<g id="instagram">
<path id="Vector" d="M11.9999 6.21841C10.8585 6.21841 9.74277 6.55687 8.79373 7.191C7.84468 7.82513 7.105 8.72644 6.6682 9.78096C6.2314 10.8355 6.11712 11.9958 6.33979 13.1153C6.56247 14.2348 7.11211 15.2631 7.9192 16.0702C8.7263 16.8773 9.7546 17.4269 10.8741 17.6496C11.9935 17.8723 13.1539 17.758 14.2084 17.3212C15.2629 16.8844 16.1643 16.1447 16.7984 15.1957C17.4325 14.2466 17.771 13.1308 17.771 11.9894C17.7728 11.2311 17.6248 10.4798 17.3355 9.77877C17.0461 9.07776 16.6211 8.44083 16.0848 7.90457C15.5486 7.36831 14.9116 6.94328 14.2106 6.65392C13.5096 6.36456 12.7583 6.21655 11.9999 6.21841ZM11.9999 15.7477C11.2566 15.7477 10.53 15.5272 9.91199 15.1143C9.29396 14.7013 8.81226 14.1144 8.52781 13.4276C8.24336 12.7409 8.16893 11.9853 8.31394 11.2563C8.45895 10.5272 8.81689 9.85758 9.34249 9.33199C9.86808 8.80639 10.5377 8.44846 11.2668 8.30344C11.9958 8.15843 12.7514 8.23286 13.4381 8.51731C14.1249 8.80176 14.7118 9.28346 15.1248 9.90149C15.5377 10.5195 15.7582 11.2461 15.7582 11.9894C15.7582 12.9862 15.3622 13.9421 14.6574 14.6469C13.9526 15.3517 12.9967 15.7477 11.9999 15.7477ZM19.3615 5.97912C19.3615 6.25751 19.279 6.52965 19.1243 6.76112C18.9696 6.9926 18.7498 7.17301 18.4926 7.27955C18.2354 7.38608 17.9524 7.41396 17.6794 7.35964C17.4063 7.30533 17.1555 7.17128 16.9587 6.97442C16.7618 6.77757 16.6277 6.52677 16.5734 6.25372C16.5191 5.98068 16.547 5.69767 16.6535 5.44047C16.7601 5.18327 16.9405 4.96344 17.172 4.80877C17.4034 4.6541 17.6756 4.57155 17.954 4.57155C18.3273 4.57155 18.6853 4.71985 18.9493 4.98382C19.2132 5.24779 19.3615 5.60581 19.3615 5.97912ZM23.176 7.38669C23.217 5.63684 22.5643 3.9418 21.3603 2.67133C20.0966 1.45194 18.4007 0.783721 16.6449 0.813341C14.8151 0.728886 9.1848 0.728886 7.35496 0.813341C5.60564 0.775462 3.91172 1.42775 2.6396 2.62911C1.43562 3.89957 0.782898 5.59461 0.823839 7.34446C0.739385 9.1743 0.739385 14.8046 0.823839 16.6344C0.782898 18.3843 1.43562 20.0793 2.6396 21.3498C3.91172 22.5511 5.60564 23.2034 7.35496 23.1655C9.21295 23.2782 14.7869 23.2782 16.6449 23.1655C18.3948 23.2065 20.0898 22.5538 21.3603 21.3498C22.5643 20.0793 23.217 18.3843 23.176 16.6344C23.2605 14.8046 23.2605 9.1743 23.176 7.34446V7.38669ZM20.7832 18.6472C20.5921 19.1314 20.3036 19.5711 19.9355 19.9391C19.5675 20.3071 19.1278 20.5956 18.6437 20.7868C16.4586 21.2285 14.2247 21.38 11.9999 21.2372C9.77986 21.3802 7.55062 21.2288 5.37029 20.7868C4.88617 20.5956 4.44647 20.3071 4.07844 19.9391C3.71041 19.5711 3.42189 19.1314 3.23078 18.6472C2.6396 17.1552 2.76628 13.6363 2.76628 12.0035C2.76628 10.3707 2.6396 6.83774 3.23078 5.35979C3.4165 4.87089 3.70295 4.42652 4.07154 4.0555C4.44013 3.68449 4.88262 3.39513 5.37029 3.20621C7.55062 2.7642 9.77986 2.61274 11.9999 2.75579C14.2247 2.61298 16.4586 2.76443 18.6437 3.20621C19.1278 3.39732 19.5675 3.68583 19.9355 4.05386C20.3036 4.42189 20.5921 4.8616 20.7832 5.34572C21.3744 6.83774 21.2336 10.3567 21.2336 11.9894C21.2336 13.6222 21.3744 17.1552 20.7832 18.6332V18.6472Z" fill="#9198A1"/>
</g>
</svg>
