<svg width="24" height="24" viewBox="0 0 24 24" fill="none" xmlns="http://www.w3.org/2000/svg">
<g id="linkedin">
<path id="Vector" d="M21.4489 0.752019H2.67712C2.43516 0.740682 2.19335 0.777178 1.96551 0.859417C1.73768 0.941657 1.5283 1.06802 1.34937 1.23129C1.17043 1.39455 1.02545 1.5915 0.922731 1.81086C0.82001 2.03022 0.761561 2.26769 0.750732 2.50967V21.3236C0.764907 21.83 0.972415 22.3118 1.33066 22.6701C1.6889 23.0283 2.17069 23.2358 2.67712 23.25H21.4489C21.9412 23.2281 22.4054 23.0141 22.7418 22.654C23.0783 22.2939 23.2602 21.8163 23.2487 21.3236V2.50967C23.2527 2.27415 23.2086 2.04029 23.119 1.82243C23.0295 1.60457 22.8963 1.40731 22.7278 1.24273C22.5593 1.07816 22.3589 0.949741 22.139 0.865359C21.9191 0.780978 21.6842 0.742409 21.4489 0.752019ZM7.78135 19.5097H4.50508V9.48405H7.78135V19.5097ZM6.22055 7.96543C5.99193 7.9734 5.76413 7.934 5.55146 7.84972C5.33879 7.76543 5.14585 7.63808 4.98475 7.47567C4.82365 7.31325 4.69788 7.11927 4.61533 6.90592C4.53279 6.69257 4.49525 6.46445 4.50508 6.2359C4.49497 6.00488 4.53327 5.7743 4.6175 5.55895C4.70174 5.34359 4.83006 5.14823 4.99423 4.98538C5.15841 4.82253 5.35481 4.69579 5.57083 4.6133C5.78686 4.53081 6.01775 4.49439 6.24868 4.50637C6.4773 4.4984 6.7051 4.5378 6.91777 4.62208C7.13044 4.70637 7.32339 4.83372 7.48448 4.99614C7.64558 5.15856 7.77135 5.35253 7.8539 5.56588C7.93644 5.77923 7.97398 6.00735 7.96415 6.2359C7.97426 6.46692 7.93596 6.6975 7.85173 6.91286C7.76749 7.12821 7.63917 7.32358 7.475 7.48643C7.31083 7.64928 7.11443 7.77601 6.8984 7.8585C6.68237 7.94099 6.45149 7.97741 6.22055 7.96543ZM19.5084 19.5097H16.2181V14.0258C16.2181 12.7181 15.7541 11.8182 14.587 11.8182C14.2244 11.8214 13.8717 11.9366 13.5772 12.148C13.2827 12.3595 13.0607 12.6568 12.9418 12.9994C12.8504 13.2561 12.8121 13.5288 12.8293 13.8008V19.5097H9.59525V9.48405H12.8293V10.8902C13.1169 10.3619 13.5448 9.92347 14.0659 9.62322C14.587 9.32296 15.181 9.17261 15.7822 9.18876C17.9054 9.18876 19.5084 10.5949 19.5084 13.5899V19.5097Z" fill="#9198A1"/>
</g>
</svg>
