<svg width="24" height="16" viewBox="0 0 24 16" fill="none" xmlns="http://www.w3.org/2000/svg">
<g id="youtube">
<path id="Vector" d="M22.7854 2.57918C22.6603 2.09726 22.4096 1.65717 22.0588 1.30388C21.708 0.950596 21.2696 0.696772 20.7886 0.568346C17.8721 0.224374 14.9365 0.0693715 12 0.104307C9.06352 0.0693715 6.12786 0.224374 3.21139 0.568346C2.73035 0.696772 2.29204 0.950596 1.94122 1.30388C1.5904 1.65717 1.33966 2.09726 1.21461 2.57918C0.895143 4.37058 0.739819 6.1874 0.750574 8.00703C0.73928 9.836 0.894602 11.6622 1.21461 13.463C1.34614 13.9371 1.59976 14.3685 1.95015 14.7139C2.30054 15.0594 2.73543 15.3069 3.21139 15.4317C6.12786 15.7756 9.06352 15.9306 12 15.8957C14.9365 15.9306 17.8721 15.7756 20.7886 15.4317C21.2646 15.3069 21.6995 15.0594 22.0499 14.7139C22.4002 14.3685 22.6539 13.9371 22.7854 13.463C23.1054 11.6622 23.2607 9.836 23.2494 8.00703C23.2602 6.1874 23.1049 4.37058 22.7854 2.57918ZM9.69387 11.3678V4.67439L15.5858 8.00703L9.69387 11.3537V11.3678Z" fill="#9198A1"/>
</g>
</svg>
